{"title":"Mighty Joe Young [1998] x264","uid":12280640,"size":829042042,"categoryP":"video","categoryS":"movies","magnet":"?xt=urn:btih:11a44f3d39184fdfe44a0a4abee20b947ae6e035&amp;dn=Mighty+Joe+Young+%5B1998%5D+x264&amp;tr=udp%3A%2F%2Ftracker.openbittorrent.com%3A80&amp;tr=udp%3A%2F%2Fopen.demonii.com%3A1337&amp;tr=udp%3A%2F%2Ftracker.coppersurfer.tk%3A6969&amp;tr=udp%3A%2F%2Fexodus.desync.com%3A6969","seeders":0,"leechers":1,"uploader":null,"files":1,"time":1440410002,"description":"If you enjoyed this rip please rate, comment, and seed.\nTorrents are a peer to peer file sharing system that rely on users like yourself to make content freely available.\nWhen you don't share, you are hurting the torrent community and making files unavailable to other users.\n\nFormat : MPEG-4\nFormat profile : Base Media / Version 2\nCodec ID : mp42\nFile size : 791 MiB\nDuration : 1h 54mn\nOverall bit rate mode : Variable\nOverall bit rate : 967 Kbps\n\nVideo\nID : 1\nFormat : AVC\nFormat/Info : Advanced Video Codec\nFormat profile : High@L3\nFormat settings, CABAC : Yes\nFormat settings, ReFrames : 4 frames\nCodec ID : avc1\nCodec ID/Info : Advanced Video Coding\nDuration : 1h 54mn\nBit rate : 800 Kbps\nWidth : 720 pixels\nHeight : 480 pixels\nDisplay aspect ratio : 4:3\nOriginal display aspect rat : 4:3\nFrame rate mode : Variable\nFrame rate : 23.976 fps\nMinimum frame rate : 19.916 fps\nMaximum frame rate : 731.707 fps\nColor space : YUV\nChroma subsampling : 4:2:0\nBit depth : 8 bits\nScan type : Progressive\nBits/(Pixel*Frame) : 0.097\nStream size : 654 MiB (83%)\nWriting library : x264 core 142 r2479 dd79a61\nEncoding settings : cabac=1 / ref=3 / deblock=1:0:0 / analyse=0x3:0x113 / me=hex / subme=7 / psy=1 / psy_rd=1.00:0.00 / mixed_ref=1 / me_range=16 / chroma_me=1 / trellis=1 / 8x8dct=1 / cqm=0 / deadzone=21,11 / fast_pskip=1 / chroma_qp_offset=-2 / threads=6 / lookahead_threads=1 / sliced_threads=0 / nr=0 / decimate=1 / interlaced=0 / bluray_compat=0 / constrained_intra=0 / bframes=3 / b_pyramid=2 / b_adapt=1 / b_bias=0 / direct=1 / weightb=1 / open_gop=0 / weightp=2 / keyint=240 / keyint_min=24 / scenecut=40 / intra_refresh=0 / rc_lookahead=40 / rc=2pass / mbtree=1 / bitrate=800 / ratetol=1.0 / qcomp=0.60 / qpmin=0 / qpmax=69 / qpstep=4 / cplxblur=20.0 / qblur=0.5 / ip_ratio=1.40 / aq=1:1.00\nColor range : Limited\nColor primaries : BT.601 NTSC\nTransfer characteristics : BT.709\nMatrix coefficients : BT.601\n\nAudio\nID : 2\nFormat : AAC\nFormat/Info : Advanced Audio Codec\nFormat profile : LC\nCodec ID : 40\nDuration : 1h 54mn\nBit rate mode : Variable\nBit rate : 160 Kbps\nChannel(s) : 2 channels\nChannel(s)_Original : 6 channels\nChannel positions : Front: L C R, Side: L R, LFE\nSampling rate : 48.0 KHz\nCompression mode : Lossy\nStream size : 131 MiB (17%)\nTitle : Surround / Surround\nLanguage : English\n\nText\nID : 3\nFormat : Timed Text\nMuxing mode : sbtl\nCodec ID : tx3g\nDuration : 1h 51mn\nBit rate mode : Variable\nBit rate : 64 bps\nStream size : 52.1 KiB (0%)\nLanguage : English\n\nMenu\nID : 4\nCodec ID : text\nDuration : 1h 54mn\nLanguage : English\n00:00:00.000 : Chapter 1\n00:01:02.162 : Chapter 2\n00:10:57.507 : Chapter 3\n00:15:29.497 : Chapter 4\n00:23:48.662 : Chapter 5\n00:26:31.493 : Chapter 6\n00:32:44.300 : Chapter 7\n00:36:38.200 : Chapter 8\n00:42:00.689 : Chapter 9\n00:53:06.656 : Chapter 10\n01:00:30.067 : Chapter 11\n01:13:59.076 : Chapter 12\n01:19:50.229 : Chapter 13\n01:26:36.301 : Chapter 14\n01:33:36.754 : Chapter 15\n01:46:23.770 : Chapter 16\nBit rate mode : VBR","torrent":{"xt":"urn:btih:11a44f3d39184fdfe44a0a4abee20b947ae6e035","amp;dn":"Mighty+Joe+Young+%5B1998%5D+x264","amp;tr":["udp%3A%2F%2Ftracker.openbittorrent.com%3A80","udp%3A%2F%2Fopen.demonii.com%3A1337","udp%3A%2F%2Ftracker.coppersurfer.tk%3A6969","udp%3A%2F%2Fexodus.desync.com%3A6969"],"infoHash":"11a44f3d39184fdfe44a0a4abee20b947ae6e035","infoHashBuffer":{"type":"Buffer","data":[17,164,79,61,57,24,79,223,228,74,10,74,190,226,11,148,122,230,224,53]},"announce":[],"urlList":[]}}